<svg width="63" height="10" viewBox="0 0 63 10" fill="none" xmlns="http://www.w3.org/2000/svg">
<path d="M2.832 1.704H0.192V1.212H6.012V1.704H3.372V9H2.832V1.704ZM13.6032 9V5.064H8.19122V9H7.63922V1.212H8.19122V4.572H13.6032V1.212H14.1552V9H13.6032ZM17.0377 9V1.212H20.6737V1.692H17.5897V4.524H20.3737V4.992H17.5897V8.496H20.7937V9H17.0377ZM23.0025 9V1.248C23.6905 1.192 24.2745 1.164 24.7545 1.164C25.4905 1.164 26.0985 1.356 26.5785 1.74C27.0585 2.116 27.2985 2.656 27.2985 3.36C27.2985 3.832 27.1625 4.268 26.8905 4.668C26.6185 5.068 26.3105 5.392 25.9665 5.64C26.9185 6.904 27.5065 7.66 27.7305 7.908C28.1865 8.38 28.6825 8.648 29.2185 8.712L29.2065 9.084C28.7585 9.076 28.3945 9.012 28.1145 8.892C27.8345 8.764 27.5545 8.552 27.2745 8.256C27.0025 7.96 26.3985 7.164 25.4625 5.868C24.8145 5.868 24.1785 5.848 23.5545 5.808V9H23.0025ZM25.1625 5.412C25.4745 5.412 25.8105 5.204 26.1705 4.788C26.5305 4.372 26.7105 3.888 26.7105 3.336C26.7105 2.784 26.5225 2.364 26.1465 2.076C25.7705 1.788 25.2825 1.644 24.6825 1.644C24.3625 1.644 23.9865 1.66 23.5545 1.692V5.352C24.1305 5.392 24.6665 5.412 25.1625 5.412ZM33.9153 8.592H33.5913L31.3233 3.084C31.2273 2.868 31.1313 2.616 31.0353 2.328C31.0353 2.336 31.0273 2.38 31.0113 2.46C31.0033 2.54 30.9913 2.648 30.9753 2.784C30.9593 2.912 30.9433 3.02 30.9273 3.108L30.0273 9H29.4873L30.7593 1.164H31.0833L33.5073 6.912C33.6993 7.392 33.7953 7.644 33.7953 7.668C33.8513 7.5 33.9593 7.252 34.1193 6.924L36.8193 1.164H37.1433L38.3313 9H37.7553L36.9033 3.084C36.8473 2.692 36.8193 2.432 36.8193 2.304L36.4713 3.096L33.9153 8.592ZM43.8371 9.12C42.7251 9.12 41.7931 8.732 41.0411 7.956C40.2891 7.18 39.9131 6.232 39.9131 5.112C39.9131 3.984 40.2891 3.032 41.0411 2.256C41.7931 1.48 42.7251 1.092 43.8371 1.092C44.9491 1.092 45.8811 1.48 46.6331 2.256C47.3851 3.032 47.7611 3.984 47.7611 5.112C47.7611 6.232 47.3851 7.18 46.6331 7.956C45.8811 8.732 44.9491 9.12 43.8371 9.12ZM43.8371 1.584C42.8771 1.584 42.0771 1.924 41.4371 2.604C40.8051 3.284 40.4891 4.12 40.4891 5.112C40.4891 6.096 40.8051 6.928 41.4371 7.608C42.0771 8.28 42.8771 8.616 43.8371 8.616C44.8051 8.616 45.6051 8.28 46.2371 7.608C46.8691 6.928 47.1851 6.096 47.1851 5.112C47.1851 4.12 46.8691 3.284 46.2371 2.604C45.6051 1.924 44.8051 1.584 43.8371 1.584ZM49.7826 0.707999C50.5666 0.411999 51.2906 0.263999 51.9546 0.263999C52.6266 0.263999 53.1706 0.424 53.5866 0.744C54.0026 1.056 54.2106 1.448 54.2106 1.92C54.2106 2.392 54.0546 2.82 53.7426 3.204C53.4386 3.588 53.0706 3.896 52.6386 4.128C53.2306 4.288 53.7186 4.56 54.1026 4.944C54.4866 5.32 54.6786 5.808 54.6786 6.408C54.6786 7.2 54.3826 7.86 53.7906 8.388C53.1986 8.916 52.4826 9.18 51.6426 9.18C50.8026 9.18 50.0466 9.012 49.3746 8.676L49.5666 8.232C50.1106 8.512 50.7666 8.652 51.5346 8.652C52.3026 8.652 52.9146 8.444 53.3706 8.028C53.8266 7.604 54.0546 7.064 54.0546 6.408C54.0546 5.984 53.8986 5.616 53.5866 5.304C53.2746 4.992 52.9146 4.768 52.5066 4.632C52.0986 4.496 51.6986 4.428 51.3066 4.428C51.2826 4.428 51.2586 4.428 51.2346 4.428V4.02C51.8186 3.988 52.3586 3.76 52.8546 3.336C53.3506 2.904 53.5986 2.452 53.5986 1.98C53.5986 1.628 53.4466 1.344 53.1426 1.128C52.8466 0.904 52.4066 0.792 51.8226 0.792C51.2386 0.792 50.6026 0.912 49.9146 1.152L49.7826 0.707999ZM56.4103 9V8.532C57.8183 7.356 58.9383 6.252 59.7703 5.22C60.6023 4.188 61.0183 3.324 61.0183 2.628C61.0183 1.932 60.8503 1.456 60.5143 1.2C60.1863 0.936 59.6863 0.804 59.0143 0.804C58.3423 0.804 57.6543 0.928 56.9503 1.176L56.8063 0.696C57.5903 0.415999 58.3543 0.275999 59.0983 0.275999C59.8503 0.275999 60.4623 0.455999 60.9343 0.816C61.4063 1.176 61.6423 1.756 61.6423 2.556C61.6423 3.348 61.2503 4.256 60.4663 5.28C59.6823 6.304 58.6303 7.38 57.3103 8.508H62.0983V9H56.4103Z" fill="black"/>
</svg>
